<svg width="2897" height="951" xmlns="http://www.w3.org/2000/svg" xmlns:xlink="http://www.w3.org/1999/xlink" overflow="hidden"><defs><clipPath id="clip0"><rect x="753" y="628" width="2897" height="951"/></clipPath><clipPath id="clip1"><rect x="1660" y="355" width="490" height="694"/></clipPath><clipPath id="clip2"><rect x="755" y="999" width="161" height="694"/></clipPath><clipPath id="clip3"><rect x="915" y="999" width="162" height="694"/></clipPath><clipPath id="clip4"><rect x="1076" y="999" width="161" height="694"/></clipPath><clipPath id="clip5"><rect x="1557" y="999" width="162" height="694"/></clipPath><clipPath id="clip6"><rect x="1718" y="999" width="161" height="694"/></clipPath><clipPath id="clip7"><rect x="1878" y="999" width="162" height="694"/></clipPath><clipPath id="clip8"><rect x="2039" y="999" width="161" height="694"/></clipPath><clipPath id="clip9"><rect x="2199" y="999" width="162" height="694"/></clipPath><clipPath id="clip10"><rect x="2360" y="999" width="162" height="694"/></clipPath><clipPath id="clip11"><rect x="2521" y="999" width="161" height="694"/></clipPath><clipPath id="clip12"><rect x="2681" y="999" width="162" height="694"/></clipPath><clipPath id="clip13"><rect x="2842" y="999" width="161" height="694"/></clipPath><clipPath id="clip14"><rect x="3002" y="999" width="162" height="694"/></clipPath><clipPath id="clip15"><rect x="3163" y="999" width="161" height="694"/></clipPath><clipPath id="clip16"><rect x="3323" y="999" width="162" height="694"/></clipPath><clipPath id="clip17"><rect x="3484" y="999" width="161" height="694"/></clipPath><clipPath id="clip18"><rect x="2360" y="1133" width="162" height="694"/></clipPath><clipPath id="clip19"><rect x="2521" y="1133" width="161" height="694"/></clipPath><clipPath id="clip20"><rect x="2681" y="1133" width="162" height="694"/></clipPath><clipPath id="clip21"><rect x="2842" y="1133" width="161" height="694"/></clipPath><clipPath id="clip22"><rect x="3002" y="1133" width="162" height="694"/></clipPath><clipPath id="clip23"><rect x="3163" y="1133" width="161" height="694"/></clipPath><clipPath id="clip24"><rect x="3323" y="1133" width="162" height="694"/></clipPath><clipPath id="clip25"><rect x="3484" y="1133" width="161" height="694"/></clipPath></defs><g clip-path="url(#clip0)" transform="translate(-753 -628)"><path d="M2149.01 634.041 2149.01 906.291" stroke="#000000" stroke-width="4.58333" stroke-linejoin="round" stroke-miterlimit="10" fill="none" fill-rule="evenodd"/><path d="M2346.01 634.041 2346.01 906.291" stroke="#000000" stroke-width="4.58333" stroke-linejoin="round" stroke-miterlimit="10" fill="none" fill-rule="evenodd"/><path d="M2543 634.041 2543 906.291" stroke="#000000" stroke-width="4.58333" stroke-linejoin="round" stroke-miterlimit="10" fill="none" fill-rule="evenodd"/><path d="M2146.72 770.166 2742.28 770.166" stroke="#000000" stroke-width="4.58333" stroke-linejoin="round" stroke-miterlimit="10" fill="none" fill-rule="evenodd"/><path d="M2739.99 634.041 2739.99 906.291" stroke="#000000" stroke-width="4.58333" stroke-linejoin="round" stroke-miterlimit="10" fill="none" fill-rule="evenodd"/><path d="M2146.72 636.333 2742.28 636.333" stroke="#000000" stroke-width="4.58333" stroke-linejoin="round" stroke-miterlimit="10" fill="none" fill-rule="evenodd"/><path d="M2146.72 904 2742.28 904" stroke="#000000" stroke-width="4.58333" stroke-linejoin="round" stroke-miterlimit="10" fill="none" fill-rule="evenodd"/><g clip-path="url(#clip1)"><text font-family="DengXian,DengXian_MSFontService,sans-serif" font-weight="400" font-size="83" transform="matrix(1 0 0 1 1698.26 730)">最大关键字</text></g><text font-family="DengXian,DengXian_MSFontService,sans-serif" font-weight="400" font-size="83" transform="matrix(1 0 0 1 2203.97 730)">22<tspan font-size="83" x="196.992" y="0">48</tspan><tspan font-size="83" x="393.984" y="0">86</tspan><tspan font-size="83" x="-464.458" y="134">起始地址</tspan><tspan font-size="83" x="21.7708" y="134">1</tspan><tspan font-size="83" x="218.763" y="134">7</tspan><tspan font-size="83" x="393.984" y="134">13</tspan></text><path d="M755.292 1279.72 915.815 1279.72 915.815 1413.56 755.292 1413.56Z" fill="#ED7D31" fill-rule="evenodd"/><path d="M915.815 1279.72 1076.34 1279.72 1076.34 1413.56 915.815 1413.56Z" fill="#ED7D31" fill-rule="evenodd"/><path d="M1076.34 1279.72 1236.86 1279.72 1236.86 1413.56 1076.34 1413.56Z" fill="#ED7D31" fill-rule="evenodd"/><path d="M1236.86 1279.72 1397.38 1279.72 1397.38 1413.56 1236.86 1413.56Z" fill="#ED7D31" fill-rule="evenodd"/><path d="M1397.38 1279.72 1557.91 1279.72 1557.91 1413.56 1397.38 1413.56Z" fill="#ED7D31" fill-rule="evenodd"/><path d="M1557.91 1279.72 1718.43 1279.72 1718.43 1413.56 1557.91 1413.56Z" fill="#ED7D31" fill-rule="evenodd"/><path d="M1718.43 1279.72 1878.95 1279.72 1878.95 1413.56 1718.43 1413.56Z" fill="#4472C4" fill-rule="evenodd"/><path d="M1878.95 1279.72 2039.48 1279.72 2039.48 1413.56 1878.95 1413.56Z" fill="#4472C4" fill-rule="evenodd"/><path d="M2039.48 1279.72 2200 1279.72 2200 1413.56 2039.48 1413.56Z" fill="#4472C4" fill-rule="evenodd"/><path d="M2200 1279.72 2360.52 1279.72 2360.52 1413.56 2200 1413.56Z" fill="#4472C4" fill-rule="evenodd"/><path d="M2360.52 1279.72 2521.05 1279.72 2521.05 1413.56 2360.52 1413.56Z" fill="#4472C4" fill-rule="evenodd"/><path d="M2521.05 1279.72 2681.57 1279.72 2681.57 1413.56 2521.05 1413.56Z" fill="#4472C4" fill-rule="evenodd"/><path d="M2681.57 1279.72 2842.09 1279.72 2842.09 1413.56 2681.57 1413.56Z" fill="#70AD47" fill-rule="evenodd"/><path d="M2842.09 1279.72 3002.62 1279.72 3002.62 1413.56 2842.09 1413.56Z" fill="#70AD47" fill-rule="evenodd"/><path d="M3002.62 1279.72 3163.14 1279.72 3163.14 1413.56 3002.62 1413.56Z" fill="#70AD47" fill-rule="evenodd"/><path d="M3163.14 1279.72 3323.66 1279.72 3323.66 1413.56 3163.14 1413.56Z" fill="#70AD47" fill-rule="evenodd"/><path d="M3323.66 1279.72 3484.19 1279.72 3484.19 1413.56 3323.66 1413.56Z" fill="#70AD47" fill-rule="evenodd"/><path d="M3484.19 1279.72 3644.71 1279.72 3644.71 1413.56 3484.19 1413.56Z" fill="#70AD47" fill-rule="evenodd"/><path d="M915.815 1277.43 915.815 1415.85" stroke="#000000" stroke-width="4.58333" stroke-linejoin="round" stroke-miterlimit="10" fill="none" fill-rule="evenodd"/><path d="M1076.34 1277.43 1076.34 1415.85" stroke="#000000" stroke-width="4.58333" stroke-linejoin="round" stroke-miterlimit="10" fill="none" fill-rule="evenodd"/><path d="M1236.86 1277.43 1236.86 1415.85" stroke="#000000" stroke-width="4.58333" stroke-linejoin="round" stroke-miterlimit="10" fill="none" fill-rule="evenodd"/><path d="M1397.38 1277.43 1397.38 1415.85" stroke="#000000" stroke-width="4.58333" stroke-linejoin="round" stroke-miterlimit="10" fill="none" fill-rule="evenodd"/><path d="M1557.91 1277.43 1557.91 1415.85" stroke="#000000" stroke-width="4.58333" stroke-linejoin="round" stroke-miterlimit="10" fill="none" fill-rule="evenodd"/><path d="M1718.43 1277.43 1718.43 1415.85" stroke="#000000" stroke-width="4.58333" stroke-linejoin="round" stroke-miterlimit="10" fill="none" fill-rule="evenodd"/><path d="M1878.95 1277.43 1878.95 1415.85" stroke="#000000" stroke-width="4.58333" stroke-linejoin="round" stroke-miterlimit="10" fill="none" fill-rule="evenodd"/><path d="M2039.48 1277.43 2039.48 1415.85" stroke="#000000" stroke-width="4.58333" stroke-linejoin="round" stroke-miterlimit="10" fill="none" fill-rule="evenodd"/><path d="M2200 1277.43 2200 1415.85" stroke="#000000" stroke-width="4.58333" stroke-linejoin="round" stroke-miterlimit="10" fill="none" fill-rule="evenodd"/><path d="M2360.52 1277.43 2360.52 1415.85" stroke="#000000" stroke-width="4.58333" stroke-linejoin="round" stroke-miterlimit="10" fill="none" fill-rule="evenodd"/><path d="M2521.05 1277.43 2521.05 1415.85" stroke="#000000" stroke-width="4.58333" stroke-linejoin="round" stroke-miterlimit="10" fill="none" fill-rule="evenodd"/><path d="M2681.57 1277.43 2681.57 1415.85" stroke="#000000" stroke-width="4.58333" stroke-linejoin="round" stroke-miterlimit="10" fill="none" fill-rule="evenodd"/><path d="M2842.09 1277.43 2842.09 1415.85" stroke="#000000" stroke-width="4.58333" stroke-linejoin="round" stroke-miterlimit="10" fill="none" fill-rule="evenodd"/><path d="M3002.62 1277.43 3002.62 1415.85" stroke="#000000" stroke-width="4.58333" stroke-linejoin="round" stroke-miterlimit="10" fill="none" fill-rule="evenodd"/><path d="M3163.14 1277.43 3163.14 1415.85" stroke="#000000" stroke-width="4.58333" stroke-linejoin="round" stroke-miterlimit="10" fill="none" fill-rule="evenodd"/><path d="M3323.66 1277.43 3323.66 1415.85" stroke="#000000" stroke-width="4.58333" stroke-linejoin="round" stroke-miterlimit="10" fill="none" fill-rule="evenodd"/><path d="M3484.19 1277.43 3484.19 1415.85" stroke="#000000" stroke-width="4.58333" stroke-linejoin="round" stroke-miterlimit="10" fill="none" fill-rule="evenodd"/><path d="M753 1413.56 3647 1413.56" stroke="#000000" stroke-width="4.58333" stroke-linejoin="round" stroke-miterlimit="10" fill="none" fill-rule="evenodd"/><path d="M755.292 1277.43 755.292 1415.85" stroke="#000000" stroke-width="4.58333" stroke-linejoin="round" stroke-miterlimit="10" fill="none" fill-rule="evenodd"/><path d="M3644.71 1277.43 3644.71 1415.85" stroke="#000000" stroke-width="4.58333" stroke-linejoin="round" stroke-miterlimit="10" fill="none" fill-rule="evenodd"/><path d="M753 1279.72 3647 1279.72" stroke="#000000" stroke-width="4.58333" stroke-linejoin="round" stroke-miterlimit="10" fill="none" fill-rule="evenodd"/><g clip-path="url(#clip2)"><text font-family="DengXian,DengXian_MSFontService,sans-serif" font-weight="400" font-size="83" transform="matrix(1 0 0 1 792.012 1373)">22</text></g><g clip-path="url(#clip3)"><text font-family="DengXian,DengXian_MSFontService,sans-serif" font-weight="400" font-size="83" transform="matrix(1 0 0 1 952.535 1373)">12</text></g><g clip-path="url(#clip4)"><text font-family="DengXian,DengXian_MSFontService,sans-serif" font-weight="400" font-size="83" transform="matrix(1 0 0 1 1113.06 1373)">13</text></g><text font-family="DengXian,DengXian_MSFontService,sans-serif" font-weight="400" font-size="83" transform="matrix(1 0 0 1 1295.35 1373)">8<tspan font-size="83" x="160.523" y="0">9</tspan></text><g clip-path="url(#clip5)"><text font-family="DengXian,DengXian_MSFontService,sans-serif" font-weight="400" font-size="83" transform="matrix(1 0 0 1 1594.63 1373)">20</text></g><g clip-path="url(#clip6)"><text font-family="DengXian,DengXian_MSFontService,sans-serif" font-weight="400" font-size="83" transform="matrix(1 0 0 1 1755.15 1373)">33</text></g><g clip-path="url(#clip7)"><text font-family="DengXian,DengXian_MSFontService,sans-serif" font-weight="400" font-size="83" transform="matrix(1 0 0 1 1915.67 1373)">42</text></g><g clip-path="url(#clip8)"><text font-family="DengXian,DengXian_MSFontService,sans-serif" font-weight="400" font-size="83" transform="matrix(1 0 0 1 2076.2 1373)">44</text></g><g clip-path="url(#clip9)"><text font-family="DengXian,DengXian_MSFontService,sans-serif" font-weight="400" font-size="83" transform="matrix(1 0 0 1 2236.72 1373)">38</text></g><g clip-path="url(#clip10)"><text font-family="DengXian,DengXian_MSFontService,sans-serif" font-weight="400" font-size="83" transform="matrix(1 0 0 1 2397.24 1373)">24</text></g><g clip-path="url(#clip11)"><text font-family="DengXian,DengXian_MSFontService,sans-serif" font-weight="400" font-size="83" transform="matrix(1 0 0 1 2557.77 1373)">48</text></g><g clip-path="url(#clip12)"><text font-family="DengXian,DengXian_MSFontService,sans-serif" font-weight="400" font-size="83" transform="matrix(1 0 0 1 2718.29 1373)">60</text></g><g clip-path="url(#clip13)"><text font-family="DengXian,DengXian_MSFontService,sans-serif" font-weight="400" font-size="83" transform="matrix(1 0 0 1 2878.81 1373)">58</text></g><g clip-path="url(#clip14)"><text font-family="DengXian,DengXian_MSFontService,sans-serif" font-weight="400" font-size="83" transform="matrix(1 0 0 1 3039.34 1373)">74</text></g><g clip-path="url(#clip15)"><text font-family="DengXian,DengXian_MSFontService,sans-serif" font-weight="400" font-size="83" transform="matrix(1 0 0 1 3199.86 1373)">49</text></g><g clip-path="url(#clip16)"><text font-family="DengXian,DengXian_MSFontService,sans-serif" font-weight="400" font-size="83" transform="matrix(1 0 0 1 3360.38 1373)">86</text></g><g clip-path="url(#clip17)"><text font-family="DengXian,DengXian_MSFontService,sans-serif" font-weight="400" font-size="83" transform="matrix(1 0 0 1 3520.9 1373)">53</text></g><text font-family="DengXian,DengXian_MSFontService,sans-serif" font-weight="400" font-size="83" transform="matrix(1 0 0 1 813.783 1507)">0<tspan font-size="83" x="160.523" y="0">1</tspan><tspan font-size="83" x="321.046" y="0">2</tspan><tspan font-size="83" x="481.569" y="0">3</tspan><tspan font-size="83" x="642.093" y="0">4</tspan><tspan font-size="83" x="802.616" y="0">5</tspan><tspan font-size="83" x="963.139" y="0">6</tspan><tspan font-size="83" x="1123.66" y="0">7</tspan><tspan font-size="83" x="1284.19" y="0">8</tspan><tspan font-size="83" x="1444.71" y="0">9</tspan></text><g clip-path="url(#clip18)"><text font-family="DengXian,DengXian_MSFontService,sans-serif" font-weight="400" font-size="83" transform="matrix(1 0 0 1 2397.24 1507)">10</text></g><g clip-path="url(#clip19)"><text font-family="DengXian,DengXian_MSFontService,sans-serif" font-weight="400" font-size="83" transform="matrix(1 0 0 1 2557.77 1507)">11</text></g><g clip-path="url(#clip20)"><text font-family="DengXian,DengXian_MSFontService,sans-serif" font-weight="400" font-size="83" transform="matrix(1 0 0 1 2718.29 1507)">12</text></g><g clip-path="url(#clip21)"><text font-family="DengXian,DengXian_MSFontService,sans-serif" font-weight="400" font-size="83" transform="matrix(1 0 0 1 2878.81 1507)">13</text></g><g clip-path="url(#clip22)"><text font-family="DengXian,DengXian_MSFontService,sans-serif" font-weight="400" font-size="83" transform="matrix(1 0 0 1 3039.34 1507)">14</text></g><g clip-path="url(#clip23)"><text font-family="DengXian,DengXian_MSFontService,sans-serif" font-weight="400" font-size="83" transform="matrix(1 0 0 1 3199.86 1507)">15</text></g><g clip-path="url(#clip24)"><text font-family="DengXian,DengXian_MSFontService,sans-serif" font-weight="400" font-size="83" transform="matrix(1 0 0 1 3360.38 1507)">16</text></g><g clip-path="url(#clip25)"><text font-family="DengXian,DengXian_MSFontService,sans-serif" font-weight="400" font-size="83" transform="matrix(1 0 0 1 3520.9 1507)">17</text></g></g></svg>